<svg width="340" height="340" viewBox="0 0 340 340" fill="none" xmlns="http://www.w3.org/2000/svg">
<rect width="340" height="340" fill="#373837"/>
<path d="M59.2954 151.071C59.1693 167.732 58.4704 188.403 59.1808 205.052C59.6162 215.295 60.3667 223.236 61.3808 233.44C61.6672 236.321 62.0224 239.335 63.6724 241.712C66.6172 245.963 72.4839 246.737 77.6516 247.012C101.342 248.278 125.152 247.247 148.642 243.935C151.644 243.511 154.663 243.053 157.688 243.242C160.833 243.443 163.887 244.336 166.969 245.007C172.807 246.273 178.783 246.72 184.735 247.161C199.906 248.29 216.068 248.794 231.268 248.078C246.083 246.124 262.068 245.224 276.941 246.651C277.766 246.731 278.665 246.8 279.364 246.353C280.521 245.62 280.533 243.97 280.418 242.6C279.628 232.872 279.542 225.373 280.16 215.633C280.63 208.289 281.495 200.955 281.45 193.593C281.398 186.019 280.378 178.491 279.53 170.963C275.228 132.549 275.554 87.8901 280.498 49.5562C280.985 45.7864 281.513 41.9536 280.917 38.201C280.321 34.4484 278.39 30.7072 275.061 28.8682C273.073 27.7739 270.765 27.4359 268.507 27.201C263.265 26.651 258.012 25.9692 252.746 26.2786C240.245 28.8395 227.401 28.1177 214.642 27.9401C168.952 27.3098 128.991 26.6796 83.2948 26.0494C77.9782 25.975 71.9339 26.2098 68.4563 30.2317C65.3282 33.8526 65.5 39.1807 65.7808 43.9588C67.6886 76.3744 60.3438 118.616 59.2954 151.071Z" fill="#EF4823"/>
<path d="M87.9011 125.17C86.1766 142.111 84.0625 157.562 83.7245 174.584C97.5146 168.391 113.287 165.778 128.275 163.813C127.965 154.331 127.656 144.844 127.346 135.362C122.471 133.271 117.555 131.162 112.353 130.091C103.954 128.361 94.7016 129.266 87.3855 124.797" fill="#373837"/>
<path d="M139.429 136.141C139.332 146.007 139.481 154.623 139.383 164.489C142.935 164.26 146.482 164.025 150.034 163.796C150.842 163.744 151.69 163.675 152.36 163.234C153.632 162.398 153.775 160.622 153.775 159.098C153.764 151.57 153.294 144.047 152.383 136.577C152.331 136.141 152.263 135.677 151.982 135.333C151.523 134.778 150.693 134.76 149.971 134.812C146.27 135.075 142.855 134.703 139.429 136.141Z" fill="#373837"/>
<path d="M175.815 135.637C172.395 137.39 170.109 140.839 167.571 143.727C167.095 144.271 166.591 144.878 166.574 145.6C166.563 146.167 166.855 146.694 167.158 147.175C169.387 150.796 172.286 154.005 175.655 156.594C178.09 153.821 180.525 151.048 182.959 148.27C183.641 147.491 184.369 146.58 184.243 145.554C184.18 145.056 183.916 144.603 183.647 144.173C181.487 140.724 179.041 138.135 175.815 135.637Z" fill="#373837"/>
<path d="M199.396 154.469C193.129 159.545 187.503 165.062 181.722 170.688C180.96 171.427 180.152 172.292 180.152 173.352C180.152 173.988 180.456 174.584 180.765 175.14C182.289 177.838 184.283 180.261 186.643 182.272C186.97 182.553 187.331 182.834 187.76 182.868C188.368 182.92 188.889 182.467 189.33 182.049C195.724 175.947 202.112 169.846 208.506 163.744C208.729 163.532 208.953 163.315 209.079 163.034C209.468 162.152 208.683 161.218 207.956 160.587C205.194 158.198 202.588 156.25 199.396 154.469Z" fill="#373837"/>
<path d="M194.292 192.734C201.344 186.117 208.397 179.19 215.455 172.567C216.005 172.052 216.595 171.519 217.329 171.375C218.154 171.221 218.979 171.593 219.735 171.966C229.979 176.996 239.701 183.08 248.702 190.098C249.114 190.419 249.538 190.757 249.796 191.21C250.821 193.015 248.782 194.98 247.034 196.103C235.49 203.539 225.338 213.13 217.248 224.221C209.984 214.82 201.551 202.141 194.292 192.734Z" fill="#373837"/>
<path d="M154.875 55.6348C156.651 67.0473 158.101 79.113 160.885 90.3192C161.515 92.8515 162.787 95.9109 165.394 96.014C175.007 96.3864 184.587 97.6125 193.982 99.6807C196.687 85.6442 205.36 72.8453 205.423 58.551C205.423 58.0296 205.401 57.4682 205.085 57.0614C204.696 56.5572 204.003 56.4369 203.372 56.3567C199.127 55.7953 194.882 55.8067 190.631 55.2453C188.683 54.9874 186.655 54.7354 184.787 55.3541C181.619 56.3968 178.198 55.7151 174.864 55.6005C168.476 55.3656 161.263 55.864 154.875 55.6348Z" fill="#373837"/>
<path d="M164.5 108.366C164.357 113.184 164.208 117.997 164.065 122.815C168.155 122.425 172.275 122.38 176.382 122.334C181.344 122.282 186.3 122.225 191.261 122.076C191.582 122.065 191.92 122.047 192.178 121.864C192.556 121.589 192.625 121.056 192.653 120.586C192.791 118.461 192.928 116.33 193.066 114.204C193.117 113.373 193.175 112.531 192.985 111.718C192.458 109.426 190.138 107.942 187.835 107.467C185.532 106.991 183.143 107.272 180.794 107.146C176.331 106.911 168.763 107.008 164.5 108.366Z" fill="#373837"/>
<path d="M284.045 186.919C283.014 171.96 280.842 157.139 280.08 142.145C278.568 112.319 279.37 82.2583 282.973 52.5984C283.776 46.0156 285.156 39.0203 282.194 32.7583C279.479 27.0177 274.483 25.0354 268.502 24.3364C264.583 23.8781 260.635 23.4312 256.688 23.351C252.586 23.2708 248.725 24.2104 244.663 24.6458C236.968 25.4708 229.205 25.3505 221.477 25.2015C189.708 24.5942 157.929 24.2619 126.155 23.7979C110.755 23.5744 95.1256 22.5546 79.737 23.225C74.2714 23.4598 68.5422 24.8291 65.3167 29.6531C61.8792 34.7979 62.8474 41.4151 63.0766 47.2359C64.1881 75.475 59.8683 103.685 57.5938 131.764C57.0724 138.192 56.6542 144.626 56.4308 151.071C56.3105 165.515 55.8636 179.958 56.0412 194.401C56.1271 201.66 56.425 208.913 56.9579 216.155C57.4735 223.202 57.7485 230.5 59.0318 237.456C61.6386 251.527 78.5683 250.083 89.4995 250.312C105.541 250.65 121.612 249.94 137.562 248.186C145.726 247.287 154.09 245.081 162.248 246.857C169.731 248.479 177.093 249.464 184.735 250.025C200.456 251.183 216.928 252.449 232.643 250.765C239.609 250.014 246.536 249.527 253.543 249.464C256.992 249.43 260.435 249.458 263.884 249.481C267.344 249.504 271.234 250.003 274.62 249.074C278.505 248.003 281.278 244.864 282.544 241.128C283.902 237.118 282.905 232.901 282.716 228.776C282.063 214.785 285.013 200.921 284.045 186.919ZM275.795 162.375C277.124 176.79 279.175 190.792 278.087 205.304C277.605 211.72 276.941 218.154 276.895 224.594C276.866 228.833 278.035 233.48 277.525 237.65C276.992 242.01 273.944 243.758 269.825 243.781C263.219 243.815 256.619 243.632 250.019 243.786C243.058 243.947 236.183 245.018 229.251 245.299C221.706 245.603 214.155 245.608 206.609 245.413C199.31 245.224 192.017 244.835 184.735 244.296C177.127 243.735 169.914 242.503 162.449 241.048C155.225 239.639 148.229 241.197 141.028 242.062C133.637 242.944 126.223 243.603 118.793 244.039C104.327 244.886 89.1214 245.643 74.6954 243.918C72.0198 243.597 68.9719 243.024 66.9323 241.122C64.5089 238.865 64.4172 235.135 64.1136 232.059C63.4204 225.075 62.773 218.091 62.3547 211.084C61.5527 197.552 61.6902 183.997 61.8964 170.453C61.9938 163.991 62.1141 157.534 62.1657 151.071C63.0594 124.912 66.9724 98.9588 68.4334 72.8281C68.7829 66.5489 69.0006 60.2526 68.9605 53.9619C68.9146 48.0723 67.3907 40.9968 69.0349 35.2791C71.0058 28.4098 78.9464 28.8567 84.7214 28.9312C92.1808 29.0286 99.6344 29.1375 107.094 29.2463C136.387 29.6645 165.686 30.1114 194.979 30.5296C209.68 30.7416 224.553 31.6296 239.237 30.8046C246.673 30.3864 253.812 28.725 261.289 29.338C267.934 29.8765 275.818 29.6359 277.823 37.4333C279.49 43.9359 277.33 51.5729 276.614 58.127C275.881 64.8474 275.302 71.5849 274.855 78.3338C273.916 92.439 273.543 106.579 273.704 120.712C273.853 134.617 274.517 148.522 275.795 162.375Z" fill="black"/>
<path d="M128.79 132.893C122.087 130.017 115.516 127.484 108.234 126.568C101.657 125.737 94.7188 125.766 88.8292 122.328C86.1308 120.753 83.6844 124.047 84.9219 126.224C83.2547 142.323 81.2151 158.387 80.8542 174.584C80.8026 176.95 83.2834 177.89 85.1625 177.059C98.7407 171.043 113.648 168.603 128.269 166.678C129.764 166.483 131.191 165.526 131.133 163.813C130.824 154.331 130.515 144.844 130.205 135.362C130.177 134.445 129.707 133.282 128.79 132.893ZM124.545 137.293C124.808 145.313 125.066 153.334 125.33 161.355C112.21 163.154 99.1474 165.503 86.7839 170.275C87.3282 156.566 88.8808 142.93 90.3245 129.289C94.9651 130.945 99.9381 131.42 104.888 131.924C111.866 132.635 118.145 134.634 124.545 137.293Z" fill="black"/>
<path d="M156.347 148.969C156.193 146.173 155.975 143.383 155.694 140.598C155.442 138.106 155.689 134.48 153.46 132.847C151.501 131.409 148.636 132.01 146.356 132.091C143.743 132.182 141.119 132.411 138.673 133.38C138.306 133.523 137.974 133.718 137.682 133.958C137.218 134.291 136.897 134.778 136.731 135.402C136.673 135.58 136.628 135.757 136.616 135.952C136.61 136.021 136.576 136.067 136.576 136.141C136.49 145.588 136.616 155.042 136.53 164.489C136.519 165.961 137.854 167.457 139.395 167.354C142.351 167.159 145.313 166.97 148.269 166.775C150.91 166.603 153.718 166.586 155.391 164.185C156.777 162.192 156.663 159.677 156.64 157.356C156.6 154.56 156.502 151.759 156.347 148.969ZM150.67 161.017C150.922 160.765 149.948 160.931 149.736 160.948C148.653 161.023 147.565 161.092 146.482 161.16C145.072 161.252 143.663 161.344 142.254 161.435C142.294 153.724 142.242 146.012 142.294 138.301C143.371 138.06 144.459 137.894 145.6 137.843C146.533 137.803 147.467 137.785 148.401 137.751C148.779 137.734 149.157 137.711 149.53 137.694C149.616 138.444 149.845 139.453 149.873 139.733C149.982 140.787 150.085 141.847 150.177 142.902C150.372 145.113 150.527 147.324 150.647 149.542C150.756 151.661 150.836 153.781 150.876 155.907C150.893 156.967 150.922 158.032 150.91 159.092C150.905 159.482 151.008 160.673 150.67 161.017Z" fill="black"/>
<path d="M183.097 152.463C184.999 150.298 187.778 147.869 186.981 144.655C186.408 142.363 184.438 140.157 182.937 138.404C181.418 136.622 179.682 135.053 177.843 133.615C177.797 133.58 177.74 133.563 177.689 133.523C177.213 133.11 176.634 132.898 176.016 132.858C175.89 132.847 175.775 132.835 175.649 132.835C175.489 132.847 175.334 132.875 175.173 132.91C174.962 132.95 174.761 133.007 174.56 133.105C174.497 133.133 174.429 133.133 174.371 133.162C172.051 134.394 170.143 136.256 168.453 138.238C167.617 139.218 166.82 140.226 165.984 141.2C164.941 142.42 163.864 143.612 163.755 145.296C163.572 148.109 166.139 150.905 167.812 152.95C169.53 155.059 171.495 156.949 173.644 158.622C174.801 159.522 176.571 159.9 177.694 158.622C179.488 156.571 181.292 154.515 183.097 152.463ZM172.773 149.988C172.085 149.209 171.484 148.47 170.911 147.657C170.602 147.221 170.304 146.786 170.017 146.339C169.908 146.173 169.782 145.886 169.639 145.709C169.662 145.686 169.702 145.64 169.714 145.634C170.04 145.256 170.361 144.878 170.682 144.494C171.364 143.675 172.028 142.844 172.727 142.042C173.42 141.246 174.137 140.467 174.916 139.756C175.128 139.561 175.334 139.412 175.54 139.252C176.411 140.014 177.328 140.73 178.113 141.584C178.651 142.168 179.333 142.965 179.705 143.469C180.255 144.202 180.702 145.084 181.264 145.806C181.069 146.053 180.897 146.316 180.679 146.568C179.912 147.445 179.144 148.316 178.382 149.186C177.414 150.292 176.44 151.398 175.471 152.504C174.555 151.667 173.587 150.905 172.773 149.988Z" fill="black"/>
<path d="M195.523 180.101C200.25 175.592 204.971 171.083 209.697 166.574C211.158 165.177 212.436 163.698 211.915 161.521C211.548 159.98 210.351 158.874 209.193 157.9C206.575 155.695 203.819 153.684 200.84 152.005C200.777 151.971 200.714 151.977 200.651 151.942C200.451 151.845 200.25 151.787 200.044 151.747C199.843 151.702 199.648 151.65 199.454 151.65C199.379 151.65 199.31 151.667 199.242 151.679C198.95 151.702 198.669 151.747 198.411 151.862C198.044 151.999 197.689 152.194 197.368 152.458C192.504 156.417 187.932 160.696 183.429 165.05C182.381 166.065 181.338 167.084 180.29 168.098C179.15 169.204 177.952 170.373 177.505 171.948C176.623 175.071 179.092 178.124 180.908 180.428C182.49 182.438 184.976 185.681 187.76 185.744C189.416 185.784 190.642 184.753 191.771 183.687C193.031 182.49 194.275 181.293 195.523 180.101ZM188.396 180.009C188.706 180.302 188.608 180.112 188.396 180.009ZM187.915 179.568C187.743 179.413 187.571 179.253 187.405 179.093C186.935 178.64 186.489 178.165 186.053 177.678C185.182 176.698 184.42 175.649 183.739 174.532C183.567 174.252 183.063 173.117 183.011 173.438C183.005 173.461 183.733 172.722 183.945 172.516C185.119 171.364 186.3 170.224 187.48 169.084C191.427 165.268 195.46 161.544 199.666 158.009C201.505 159.155 203.287 160.381 204.954 161.773C204.982 161.796 205.349 162.14 205.71 162.461C205.481 162.684 205.24 162.908 205.028 163.108C203.779 164.3 202.525 165.497 201.276 166.689C198.846 169.009 196.412 171.33 193.982 173.65C192.802 174.779 191.622 175.907 190.442 177.03C189.663 177.781 188.826 178.806 187.915 179.568Z" fill="black"/>
<path d="M246.943 185.194C243.436 182.599 239.827 180.135 236.132 177.821C232.431 175.506 228.644 173.335 224.777 171.318C221.729 169.725 218.257 167.302 214.882 169.376C212.883 170.602 211.198 172.642 209.508 174.246C207.675 175.993 205.847 177.741 204.02 179.494C200.113 183.241 196.211 186.999 192.264 190.706C192.155 190.809 192.12 190.923 192.034 191.032C191.215 191.817 190.894 192.98 191.817 194.178C199.734 204.479 206.856 215.37 214.773 225.671C216.148 227.458 218.354 227.527 219.718 225.671C224.473 219.203 229.944 213.273 235.983 207.985C239.088 205.263 242.342 202.731 245.745 200.394C248.484 198.515 252.328 196.63 252.85 192.957C253.388 189.182 249.538 187.114 246.943 185.194ZM244.806 194.143C244.032 194.665 243.247 195.18 242.48 195.713C238.945 198.159 235.542 200.806 232.293 203.625C226.77 208.42 221.901 213.846 217.392 219.581C210.849 210.821 204.667 201.803 198.073 193.083C201.155 190.167 204.226 187.24 207.285 184.3C209.113 182.547 210.941 180.794 212.774 179.047C213.954 177.918 216.59 174.486 218.285 174.446C219.002 174.429 220.291 175.449 220.984 175.804C222.176 176.417 223.367 177.047 224.542 177.689C226.604 178.812 228.644 179.981 230.66 181.19C234.545 183.521 238.332 186.013 242.016 188.66C242.617 189.09 247.407 192.109 247.281 192.636C247.315 192.499 245.064 193.971 244.806 194.143Z" fill="black"/>
<path d="M173.077 99.3598C179.854 99.9442 186.575 101.004 193.22 102.442C194.653 102.752 196.423 102.024 196.744 100.443C198.4 92.227 201.883 84.6072 204.627 76.7354C205.933 72.9885 207.068 69.1671 207.692 65.2369C208.191 62.0687 209.514 56.5687 206.34 54.426C204.684 53.3031 202.358 53.3489 200.428 53.1828C198.142 52.988 195.85 52.8906 193.57 52.6958C191.479 52.5125 189.359 52.0541 187.256 52.1114C185.194 52.163 183.297 52.9593 181.246 53.0567C177.053 53.2572 172.784 52.6385 168.568 52.6901C164.002 52.7474 159.441 52.9135 154.875 52.776C153.225 52.7244 152.354 53.8531 152.182 55.1192C152.171 55.1536 152.171 55.1937 152.165 55.2338C152.148 55.4057 152.136 55.5661 152.142 55.738C152.131 55.9557 152.079 56.1619 152.114 56.3968C153.133 62.9911 154.033 69.6026 155.127 76.1854C156.095 81.989 156.726 88.5947 159.138 94.0088C160.037 96.0312 161.521 97.939 163.727 98.5979C166.591 99.4572 170.086 99.102 173.077 99.3598ZM158.169 58.5395C164.958 58.5968 171.73 58.2932 178.519 58.7057C182.386 58.9406 185.979 57.5942 189.794 58.0067C193.822 58.4364 197.878 58.5968 201.9 59.0552C202.106 59.0724 202.307 59.1125 202.513 59.1354C202.261 59.8 202.45 61.3067 202.387 61.9599C202.221 63.6729 201.906 65.363 201.528 67.0416C200.708 70.6567 199.511 74.1744 198.233 77.6463C195.953 83.8395 193.45 89.964 191.863 96.3692C187.067 95.4125 182.249 94.6104 177.391 94.0604C174.366 93.7166 171.329 93.4588 168.287 93.2869C167.25 93.2296 165.887 93.4932 165.062 92.8343C164.305 92.2328 163.979 90.7489 163.744 89.8838C160.931 79.6744 159.688 69.0239 158.169 58.5395Z" fill="black"/>
<path d="M180.96 125.147C183.916 125.107 186.872 125.061 189.829 124.981C191.049 124.946 192.378 125.027 193.484 124.402C194.847 123.629 195.357 122.254 195.501 120.764C195.741 118.209 196.022 115.522 195.976 112.955C195.93 110.251 194.687 108.028 192.521 106.441C190.459 104.934 187.927 104.442 185.417 104.338C183.017 104.241 180.599 104.241 178.198 104.195C173.432 104.109 168.327 104.195 163.738 105.605C163.028 105.822 162.569 106.252 162.243 106.745C161.91 107.174 161.658 107.69 161.635 108.372C161.492 113.19 161.343 118.003 161.2 122.821C161.154 124.265 162.552 125.823 164.065 125.685C169.679 125.164 175.328 125.216 180.96 125.147ZM175.242 109.93C176.921 109.902 178.6 109.924 180.278 109.993C182.352 110.085 184.483 109.879 186.54 110.142C187.772 110.297 189.525 110.812 190.092 112.061C190.447 112.841 190.218 113.918 190.161 114.743C190.087 115.894 190.012 117.046 189.938 118.197C189.915 118.535 189.892 118.873 189.875 119.211C189.651 119.24 189.41 119.269 189.256 119.274C188.585 119.292 187.921 119.309 187.256 119.32C184.873 119.372 182.49 119.406 180.106 119.435C175.746 119.486 171.381 119.544 167.027 119.802C167.118 116.782 167.21 113.763 167.302 110.749C169.908 110.205 172.59 109.976 175.242 109.93Z" fill="black"/>
<path d="M74.3516 303L64.4844 274.383H64.2734C64.3203 275.023 64.375 275.898 64.4375 277.008C64.5 278.117 64.5547 279.305 64.6016 280.57C64.6484 281.836 64.6719 283.047 64.6719 284.203V303H59.5625V268.734H67.4609L76.9531 296.086H77.0938L86.9141 268.734H94.7891V303H89.4219V283.922C89.4219 282.875 89.4375 281.742 89.4688 280.523C89.5156 279.305 89.5625 278.148 89.6094 277.055C89.6719 275.961 89.7188 275.086 89.75 274.43H89.5625L79.3203 303H74.3516ZM134.234 285.82C134.234 288.461 133.898 290.867 133.227 293.039C132.57 295.195 131.578 297.055 130.25 298.617C128.922 300.164 127.258 301.359 125.258 302.203C123.258 303.047 120.914 303.469 118.227 303.469C115.492 303.469 113.117 303.047 111.102 302.203C109.102 301.359 107.438 300.156 106.109 298.594C104.797 297.031 103.812 295.164 103.156 292.992C102.5 290.82 102.172 288.414 102.172 285.773C102.172 282.242 102.75 279.164 103.906 276.539C105.078 273.898 106.852 271.852 109.227 270.398C111.617 268.93 114.633 268.195 118.273 268.195C121.836 268.195 124.797 268.922 127.156 270.375C129.516 271.828 131.281 273.875 132.453 276.516C133.641 279.141 134.234 282.242 134.234 285.82ZM108.078 285.82C108.078 288.461 108.438 290.75 109.156 292.688C109.875 294.609 110.977 296.094 112.461 297.141C113.961 298.172 115.883 298.688 118.227 298.688C120.586 298.688 122.508 298.172 123.992 297.141C125.477 296.094 126.57 294.609 127.273 292.688C127.977 290.75 128.328 288.461 128.328 285.82C128.328 281.805 127.523 278.664 125.914 276.398C124.32 274.117 121.773 272.977 118.273 272.977C115.93 272.977 114 273.492 112.484 274.523C110.984 275.555 109.875 277.031 109.156 278.953C108.438 280.859 108.078 283.148 108.078 285.82ZM170.188 303H163.273L146.492 275.648H146.281C146.344 276.57 146.398 277.547 146.445 278.578C146.508 279.609 146.555 280.672 146.586 281.766C146.633 282.859 146.672 283.969 146.703 285.094V303H141.594V268.734H148.461L165.219 295.898H165.383C165.352 295.102 165.312 294.188 165.266 293.156C165.219 292.125 165.172 291.062 165.125 289.969C165.094 288.859 165.07 287.789 165.055 286.758V268.734H170.188V303ZM179.188 303V268.734H184.812V303H179.188ZM205.742 303H200.094V273.516H190.062V268.734H215.75V273.516H205.742V303ZM251.422 285.82C251.422 288.461 251.086 290.867 250.414 293.039C249.758 295.195 248.766 297.055 247.438 298.617C246.109 300.164 244.445 301.359 242.445 302.203C240.445 303.047 238.102 303.469 235.414 303.469C232.68 303.469 230.305 303.047 228.289 302.203C226.289 301.359 224.625 300.156 223.297 298.594C221.984 297.031 221 295.164 220.344 292.992C219.688 290.82 219.359 288.414 219.359 285.773C219.359 282.242 219.938 279.164 221.094 276.539C222.266 273.898 224.039 271.852 226.414 270.398C228.805 268.93 231.82 268.195 235.461 268.195C239.023 268.195 241.984 268.922 244.344 270.375C246.703 271.828 248.469 273.875 249.641 276.516C250.828 279.141 251.422 282.242 251.422 285.82ZM225.266 285.82C225.266 288.461 225.625 290.75 226.344 292.688C227.062 294.609 228.164 296.094 229.648 297.141C231.148 298.172 233.07 298.688 235.414 298.688C237.773 298.688 239.695 298.172 241.18 297.141C242.664 296.094 243.758 294.609 244.461 292.688C245.164 290.75 245.516 288.461 245.516 285.82C245.516 281.805 244.711 278.664 243.102 276.398C241.508 274.117 238.961 272.977 235.461 272.977C233.117 272.977 231.188 273.492 229.672 274.523C228.172 275.555 227.062 277.031 226.344 278.953C225.625 280.859 225.266 283.148 225.266 285.82ZM268.414 268.734C271.367 268.734 273.805 269.094 275.727 269.812C277.664 270.531 279.102 271.625 280.039 273.094C280.992 274.562 281.469 276.43 281.469 278.695C281.469 280.383 281.156 281.82 280.531 283.008C279.906 284.195 279.086 285.18 278.07 285.961C277.055 286.742 275.969 287.367 274.812 287.836L284.539 303H278.188L269.914 289.266H264.406V303H258.781V268.734H268.414ZM268.039 273.422H264.406V284.625H268.297C270.906 284.625 272.797 284.141 273.969 283.172C275.156 282.203 275.75 280.773 275.75 278.883C275.75 276.898 275.117 275.492 273.852 274.664C272.602 273.836 270.664 273.422 268.039 273.422Z" fill="#CD412B"/>
</svg>
